<mxfile host="app.diagrams.net" agent="Mozilla/5.0 (Windows NT 10.0; Win64; x64; rv:137.0) Gecko/20100101 Firefox/137.0" version="26.2.13">
  <diagram name="Страница — 1" id="7caYpe3qnnvCFRpy5tjF">
    <mxGraphModel dx="2040" dy="2253" grid="1" gridSize="10" guides="1" tooltips="1" connect="1" arrows="1" fold="1" page="1" pageScale="1" pageWidth="827" pageHeight="1169" math="0" shadow="0">
      <root>
        <mxCell id="0" />
        <mxCell id="1" parent="0" />
        <mxCell id="lw09lFBjXcN90A01M0Rk-3" style="edgeStyle=orthogonalEdgeStyle;rounded=0;orthogonalLoop=1;jettySize=auto;html=1;exitX=0.5;exitY=1;exitDx=0;exitDy=0;" edge="1" parent="1" source="lw09lFBjXcN90A01M0Rk-1" target="lw09lFBjXcN90A01M0Rk-2">
          <mxGeometry relative="1" as="geometry" />
        </mxCell>
        <mxCell id="lw09lFBjXcN90A01M0Rk-26" style="edgeStyle=orthogonalEdgeStyle;rounded=0;orthogonalLoop=1;jettySize=auto;html=1;exitX=1;exitY=0.5;exitDx=0;exitDy=0;" edge="1" parent="1" source="lw09lFBjXcN90A01M0Rk-1">
          <mxGeometry relative="1" as="geometry">
            <mxPoint x="720" y="810" as="targetPoint" />
          </mxGeometry>
        </mxCell>
        <mxCell id="lw09lFBjXcN90A01M0Rk-1" value="&lt;div style=&quot;color: rgb(187, 187, 187); background-color: rgb(40, 44, 52); font-family: Consolas, &amp;quot;Courier New&amp;quot;, monospace; font-weight: normal; font-size: 14px; line-height: 19px; white-space: pre;&quot;&gt;&lt;div&gt;&lt;span style=&quot;background-color: light-dark(rgb(255, 255, 255), rgb(196, 200, 207)); color: rgb(0, 0, 0);&quot;&gt;while&lt;/span&gt;&lt;span style=&quot;background-color: light-dark(rgb(255, 255, 255), rgb(196, 200, 207)); color: rgb(187, 187, 187);&quot;&gt; iteration &lt;/span&gt;&lt;span style=&quot;background-color: light-dark(rgb(255, 255, 255), rgb(196, 200, 207)); color: rgb(224, 108, 117);&quot;&gt;&amp;lt;&lt;/span&gt;&lt;span style=&quot;background-color: light-dark(rgb(255, 255, 255), rgb(196, 200, 207)); color: rgb(187, 187, 187);&quot;&gt; &lt;/span&gt;&lt;span style=&quot;background-color: light-dark(rgb(255, 255, 255), rgb(196, 200, 207)); color: rgb(198, 120, 221);&quot;&gt;10000&lt;/span&gt;&lt;/div&gt;&lt;/div&gt;" style="shape=hexagon;perimeter=hexagonPerimeter2;whiteSpace=wrap;html=1;fixedSize=1;" vertex="1" parent="1">
          <mxGeometry x="281" y="20" width="266" height="80" as="geometry" />
        </mxCell>
        <mxCell id="lw09lFBjXcN90A01M0Rk-5" style="edgeStyle=orthogonalEdgeStyle;rounded=0;orthogonalLoop=1;jettySize=auto;html=1;exitX=0.5;exitY=1;exitDx=0;exitDy=0;" edge="1" parent="1" source="lw09lFBjXcN90A01M0Rk-2" target="lw09lFBjXcN90A01M0Rk-4">
          <mxGeometry relative="1" as="geometry" />
        </mxCell>
        <mxCell id="lw09lFBjXcN90A01M0Rk-2" value="iteration+1" style="rounded=1;whiteSpace=wrap;html=1;" vertex="1" parent="1">
          <mxGeometry x="354" y="150" width="120" height="60" as="geometry" />
        </mxCell>
        <mxCell id="lw09lFBjXcN90A01M0Rk-8" style="edgeStyle=orthogonalEdgeStyle;rounded=0;orthogonalLoop=1;jettySize=auto;html=1;exitX=0;exitY=0.5;exitDx=0;exitDy=0;" edge="1" parent="1" source="lw09lFBjXcN90A01M0Rk-4" target="lw09lFBjXcN90A01M0Rk-7">
          <mxGeometry relative="1" as="geometry" />
        </mxCell>
        <mxCell id="lw09lFBjXcN90A01M0Rk-9" style="edgeStyle=orthogonalEdgeStyle;rounded=0;orthogonalLoop=1;jettySize=auto;html=1;exitX=1;exitY=0.5;exitDx=0;exitDy=0;" edge="1" parent="1" source="lw09lFBjXcN90A01M0Rk-4" target="lw09lFBjXcN90A01M0Rk-6">
          <mxGeometry relative="1" as="geometry" />
        </mxCell>
        <mxCell id="lw09lFBjXcN90A01M0Rk-4" value="&lt;div style=&quot;color: rgb(187, 187, 187); font-family: Consolas, &amp;quot;Courier New&amp;quot;, monospace; font-weight: normal; font-size: 14px; line-height: 19px; white-space: pre;&quot;&gt;&lt;div&gt;&lt;span style=&quot;background-color: light-dark(#ffffff, var(--ge-dark-color, #121212)); color: rgb(0, 0, 0);&quot;&gt;f(a) &lt;/span&gt;&lt;span style=&quot;background-color: light-dark(#ffffff, var(--ge-dark-color, #121212)); color: rgb(224, 108, 117);&quot;&gt;*&lt;/span&gt;&lt;span style=&quot;background-color: light-dark(#ffffff, var(--ge-dark-color, #121212)); color: rgb(187, 187, 187);&quot;&gt; f(x) &lt;/span&gt;&lt;span style=&quot;background-color: light-dark(#ffffff, var(--ge-dark-color, #121212)); color: rgb(224, 108, 117);&quot;&gt;&amp;lt;&lt;/span&gt;&lt;span style=&quot;background-color: light-dark(#ffffff, var(--ge-dark-color, #121212)); color: rgb(187, 187, 187);&quot;&gt; &lt;/span&gt;&lt;span style=&quot;background-color: light-dark(#ffffff, var(--ge-dark-color, #121212)); color: rgb(198, 120, 221);&quot;&gt;0&lt;/span&gt;&lt;/div&gt;&lt;/div&gt;" style="rhombus;whiteSpace=wrap;html=1;" vertex="1" parent="1">
          <mxGeometry x="291" y="250" width="246" height="80" as="geometry" />
        </mxCell>
        <mxCell id="lw09lFBjXcN90A01M0Rk-12" style="edgeStyle=orthogonalEdgeStyle;rounded=0;orthogonalLoop=1;jettySize=auto;html=1;exitX=0.5;exitY=1;exitDx=0;exitDy=0;entryX=0.5;entryY=0;entryDx=0;entryDy=0;" edge="1" parent="1" source="lw09lFBjXcN90A01M0Rk-6" target="lw09lFBjXcN90A01M0Rk-10">
          <mxGeometry relative="1" as="geometry" />
        </mxCell>
        <mxCell id="lw09lFBjXcN90A01M0Rk-6" value="b=x" style="rounded=1;whiteSpace=wrap;html=1;" vertex="1" parent="1">
          <mxGeometry x="500" y="350" width="120" height="60" as="geometry" />
        </mxCell>
        <mxCell id="lw09lFBjXcN90A01M0Rk-11" style="edgeStyle=orthogonalEdgeStyle;rounded=0;orthogonalLoop=1;jettySize=auto;html=1;exitX=0.5;exitY=1;exitDx=0;exitDy=0;" edge="1" parent="1" source="lw09lFBjXcN90A01M0Rk-7" target="lw09lFBjXcN90A01M0Rk-10">
          <mxGeometry relative="1" as="geometry" />
        </mxCell>
        <mxCell id="lw09lFBjXcN90A01M0Rk-7" value="a=x" style="rounded=1;whiteSpace=wrap;html=1;" vertex="1" parent="1">
          <mxGeometry x="210" y="350" width="120" height="60" as="geometry" />
        </mxCell>
        <mxCell id="lw09lFBjXcN90A01M0Rk-14" style="edgeStyle=orthogonalEdgeStyle;rounded=0;orthogonalLoop=1;jettySize=auto;html=1;exitX=0.5;exitY=1;exitDx=0;exitDy=0;entryX=0.5;entryY=0;entryDx=0;entryDy=0;" edge="1" parent="1" source="lw09lFBjXcN90A01M0Rk-10" target="lw09lFBjXcN90A01M0Rk-13">
          <mxGeometry relative="1" as="geometry" />
        </mxCell>
        <mxCell id="lw09lFBjXcN90A01M0Rk-10" value="&lt;font style=&quot;font-size: 14px;&quot;&gt;x = a - (b - a) * f(a) / (f(b)-f(a))&lt;/font&gt;" style="rounded=1;whiteSpace=wrap;html=1;" vertex="1" parent="1">
          <mxGeometry x="211" y="450" width="406" height="60" as="geometry" />
        </mxCell>
        <mxCell id="lw09lFBjXcN90A01M0Rk-23" style="edgeStyle=orthogonalEdgeStyle;rounded=0;orthogonalLoop=1;jettySize=auto;html=1;exitX=1;exitY=0.5;exitDx=0;exitDy=0;" edge="1" parent="1" source="lw09lFBjXcN90A01M0Rk-13" target="lw09lFBjXcN90A01M0Rk-22">
          <mxGeometry relative="1" as="geometry" />
        </mxCell>
        <mxCell id="lw09lFBjXcN90A01M0Rk-24" style="edgeStyle=orthogonalEdgeStyle;rounded=0;orthogonalLoop=1;jettySize=auto;html=1;exitX=0;exitY=0.5;exitDx=0;exitDy=0;entryX=0;entryY=0.5;entryDx=0;entryDy=0;" edge="1" parent="1" source="lw09lFBjXcN90A01M0Rk-13" target="lw09lFBjXcN90A01M0Rk-1">
          <mxGeometry relative="1" as="geometry">
            <Array as="points">
              <mxPoint x="140" y="580" />
              <mxPoint x="140" y="60" />
            </Array>
          </mxGeometry>
        </mxCell>
        <mxCell id="lw09lFBjXcN90A01M0Rk-13" value="|f(x)|&amp;lt;=epsilon и |x-last_x|&amp;lt;=epsilon" style="rhombus;whiteSpace=wrap;html=1;" vertex="1" parent="1">
          <mxGeometry x="249.5" y="540" width="329" height="80" as="geometry" />
        </mxCell>
        <mxCell id="lw09lFBjXcN90A01M0Rk-20" style="edgeStyle=orthogonalEdgeStyle;rounded=0;orthogonalLoop=1;jettySize=auto;html=1;exitX=0.5;exitY=1;exitDx=0;exitDy=0;entryX=0.5;entryY=0;entryDx=0;entryDy=0;" edge="1" parent="1" source="lw09lFBjXcN90A01M0Rk-15" target="lw09lFBjXcN90A01M0Rk-1">
          <mxGeometry relative="1" as="geometry" />
        </mxCell>
        <mxCell id="lw09lFBjXcN90A01M0Rk-15" value="last_x = x" style="rounded=1;whiteSpace=wrap;html=1;" vertex="1" parent="1">
          <mxGeometry x="354" y="-80" width="120" height="60" as="geometry" />
        </mxCell>
        <mxCell id="lw09lFBjXcN90A01M0Rk-19" style="edgeStyle=orthogonalEdgeStyle;rounded=0;orthogonalLoop=1;jettySize=auto;html=1;exitX=0.5;exitY=1;exitDx=0;exitDy=0;" edge="1" parent="1" source="lw09lFBjXcN90A01M0Rk-16" target="lw09lFBjXcN90A01M0Rk-15">
          <mxGeometry relative="1" as="geometry" />
        </mxCell>
        <mxCell id="lw09lFBjXcN90A01M0Rk-16" value="iteration = 0" style="rounded=1;whiteSpace=wrap;html=1;" vertex="1" parent="1">
          <mxGeometry x="354" y="-190" width="120" height="60" as="geometry" />
        </mxCell>
        <mxCell id="lw09lFBjXcN90A01M0Rk-18" style="edgeStyle=orthogonalEdgeStyle;rounded=0;orthogonalLoop=1;jettySize=auto;html=1;exitX=0.5;exitY=1;exitDx=0;exitDy=0;entryX=0.5;entryY=0;entryDx=0;entryDy=0;" edge="1" parent="1" source="lw09lFBjXcN90A01M0Rk-17" target="lw09lFBjXcN90A01M0Rk-16">
          <mxGeometry relative="1" as="geometry" />
        </mxCell>
        <mxCell id="lw09lFBjXcN90A01M0Rk-17" value="&lt;font style=&quot;font-size: 14px;&quot;&gt;x = a - (b - a) * f(a) / (f(b)-f(a))&lt;/font&gt;" style="rounded=1;whiteSpace=wrap;html=1;" vertex="1" parent="1">
          <mxGeometry x="241" y="-290" width="346" height="60" as="geometry" />
        </mxCell>
        <mxCell id="lw09lFBjXcN90A01M0Rk-25" style="edgeStyle=orthogonalEdgeStyle;rounded=0;orthogonalLoop=1;jettySize=auto;html=1;exitX=0.5;exitY=1;exitDx=0;exitDy=0;" edge="1" parent="1" source="lw09lFBjXcN90A01M0Rk-22">
          <mxGeometry relative="1" as="geometry">
            <mxPoint x="280" y="60" as="targetPoint" />
            <Array as="points">
              <mxPoint x="607" y="750" />
              <mxPoint x="140" y="750" />
              <mxPoint x="140" y="60" />
            </Array>
          </mxGeometry>
        </mxCell>
        <mxCell id="lw09lFBjXcN90A01M0Rk-22" value="break" style="rounded=1;whiteSpace=wrap;html=1;" vertex="1" parent="1">
          <mxGeometry x="547" y="670" width="120" height="60" as="geometry" />
        </mxCell>
      </root>
    </mxGraphModel>
  </diagram>
</mxfile>
